<svg xmlns="http://www.w3.org/2000/svg" id="svg4" viewBox="0 0 120 120" height="120px" width="120px" version="1.1">
  <defs id="defs8"></defs>
  
  <path id="path2" d="m 109.98078,95.073893 c -0.721,-1.756 -1.461,-3.492 -2.477,-4.955 -0.579,-1.897 -2.252,-2.703 -2.754,-4.68 -1.203,-1.271 -1.791,-3.162 -3.025,-4.402 -1.002,-1.568 -2.177,-2.963 -2.752,-4.955 -0.806,-0.389 -0.875,-1.513 -1.377,-2.203 -0.512,-0.774 -1.16,-1.406 -1.375,-2.477 -1.316,-1.158 -1.832,-3.123 -3.031,-4.402 -2.211,-2.832 -4.188,-5.9 -6.328,-8.809 -1.168,-1.309 -2.225,-2.729 -3.301,-4.127 -0.398,-0.794 -0.754,-1.634 -1.377,-2.202 -0.108,-1.176 -1.218,-1.351 -1.377,-2.478 -1.218,-1.261 -2.086,-2.868 -3.029,-4.403 -1.305,-1.924 -2.275,-3.984 -3.299,-6.056 -1.328,-2.684 -3.059,-5.99 -4.683,-7.981 -2.435,-2.989 -4.028,-6.458 -6.052,-9.634 -0.615,-1.313 -1.176,-2.677 -1.654,-4.126 -0.748,-1.18 -1.456,-2.397 -3.3,-2.478 -0.666,-0.113 -0.602,0.501 -1.379,0.275 -0.936,0.714 -1.637,1.666 -2.203,2.752 -0.854,0.888 -2.204,1.282 -3.024,2.202 -1.062,1.968 -2.956,3.102 -3.854,5.23 -1.661,1.366 -2.361,3.693 -3.857,5.229 -0.957,2.066 -2.111,3.943 -3.299,5.781 -0.751,2.278 -2.115,3.938 -2.753,6.329 -0.601,1.051 -0.606,2.696 -0.829,4.128 -5.03,7.904 -8.935,16.936 -14.034,24.771 -2.623,3.89 -4.629,8.399 -7.154,12.388 -0.238,1.324 -1.146,1.979 -1.377,3.303 -0.842,0.812 -1.007,2.296 -1.928,3.027 -0.068,1.58 -1.159,2.143 -1.376,3.578 -0.44,0.385 -0.703,0.946 -0.826,1.649 -0.727,0.099 -0.249,1.403 -0.823,1.651 -0.3810002,1.302 0.862,1.81 0.274,2.478 -0.4190002,0.502 -0.4190002,2.249997 0,2.752997 1.863,2.173 5.495,2.578 9.356,2.751 3.561,0.783 7.816,-0.057 11.286,-0.274 11.002,-0.752 22.771,-1.092 34.679,-0.552 12.022,0.546 24.076,0.154 34.953,0 2.954,-0.62 6.375,-0.778 8.257,-2.475 0.484,-1.017 0.241,-2.506997 0,-3.577997 0.827,-0.556 1.216,-1.541 1.102,-3.028 z m -87.8,-11.285 c 0.782,-0.229 0.718,0.389 1.379,0.273 -0.366,0.92 -1.609,0.96 -1.927,1.928 -0.731,-0.576 0.688,-1.315 0.548,-2.201 z m 77.07,15.687 h -22.294 c 0.524,-1.398 1.802,-2.049 1.925,-3.854 -1.377,-2.037 -3.994,0.405 -4.68,1.651 -0.42,0.876 -0.098,1.211 0,2.202 -4.059,-0.068 -7.473,-0.784 -11.836,-0.551 -1.082,-0.02 -0.188,-2.016 -1.374,-1.926 -1.8,-0.24 -1.753,1.367 -2.753,1.926 h -9.359 c 0.149,-1.779 1.76,-2.096 2.203,-3.578 -1.206,-2.266 -4.261,-0.38 -5.504,0.552 -0.473,0.995 -1.227,1.71 -1.377,3.026 h -2.751 c 0.484,-1.074 1.352,-1.77 1.374,-3.305 -0.079,-0.561 -0.745,-0.537 -0.825,-1.099 -2.61,0.229 -3.729,1.957 -3.852,4.679 -1.865,-0.216 -2.925,0.375 -4.677,0.274 -0.908,0.201 -0.425,-0.547 0,-0.551 0.08,-0.562 0.745,-0.539 0.826,-1.101 1.861,-1.896 4.208,-3.312 5.227,-6.057 -0.019,-0.807 -0.63,-1.021 -1.101,-1.376 -2.603,0.056 -3.424,1.896 -5.231,2.752 -1.281,1.469 -2.654,2.851 -3.852,4.405 -0.166,0.658 -0.396,1.255 -0.274,2.201 -1.603,0.142 -3.08,0.404997 -4.955,0.272997 -0.516,0.016 -0.582,-0.210997 -0.275,-0.549997 0.396,-0.154 0.675,-0.431 0.826,-0.825 0.723,-0.377 1.041,-1.159 1.925,-1.377 0.916,-1.286 2.501,-1.904 3.305,-3.303 0.873,-0.229 1.398,-0.803 1.925,-1.376 1.151,-0.042 1.151,-1.234 1.654,-1.927 -0.035,-1.067 -0.812,-1.392 -1.376,-1.928 -1.854,-0.132 -3.029,0.273 -3.855,0.826 -0.736,0.494 -1.292,0.911 -1.926,1.377 -0.367,0.268 -0.887,0.812 -1.1,0.824 -0.32,0.018 -0.124,0.178 -0.278,0.275 -0.588,0.381 -0.941,0.731 -1.375,1.101 -1.205,0.999 -2.346,2.06 -3.578,3.028 -0.436,0.666 -0.982,1.217 -1.651,1.65 -0.58,0.521 -0.617,1.583 -1.376,1.928 -1.163,0.061 -1.777,-0.425 -2.75,-0.552 0.501,-1.239 0.832,-2.651 1.649,-3.579 0.649,-0.005 0.811,0.477 1.651,0.277 3.084,-1.505 4.554,-4.62 7.43,-6.331 0.713,-0.938 1.492,-1.812 2.204,-2.752 0.9,-0.842 2.033,-1.455 2.476,-2.754 1.669,-1.726 3.87,-2.918 4.683,-5.503 -0.484,-1.225 -2.267,-0.196 -3.03,0 -0.895,0.57 -1.648,1.287 -2.752,1.65 -0.017,0.168 -0.042,0.325 -0.275,0.274 -0.015,0.168 -0.042,0.326 -0.274,0.276 0.027,0.332 -0.402,0.168 0,0 0.016,-0.17 0.041,-0.327 0.274,-0.276 0.016,-0.167 0.04,-0.325 0.275,-0.274 1.863,-1.897 3.418,-4.104 5.504,-5.778 0.953,-0.978 1.65,-2.203 2.754,-3.029 0.635,-1.291 2.354,-1.498 2.202,-3.576 -0.829,-1.241 -1.96,0.148 -3.027,0.274 -0.786,0.775 -1.581,1.54 -2.756,1.927 -1.667,1.54 -3.364,3.056 -5.227,4.404 0.027,0.329 -0.402,0.168 0,0 0.387,-1.908 1.915,-2.673 3.302,-3.578 0.353,-0.747 1.41,-0.793 1.653,-1.652 1.187,-0.005 1.012,-1.37 2.199,-1.375 1.971,-2.616 5.475,-3.702 6.608,-7.155 -0.119,-0.984 -0.692,-1.514 -1.377,-1.927 -2.143,-0.126 -3.172,0.862 -4.128,1.927 -0.648,-0.076 0.024,-1.026 0.277,-1.102 -0.042,-0.686 0.429,-0.853 0.549,-1.377 0.349,-0.935 0.976,-1.591 1.376,-2.477 0.741,-1.827 1.979,-3.159 2.753,-4.955 0.55,0.277 0.434,1.217 1.375,1.102 1.707,-0.678 2.578,-2.194 3.304,-3.855 0.018,-1.119 -1.019,-1.183 -2.204,-1.1 2.688,-3.917 4.104,-9.106 6.606,-13.209 0.792,-2.511 2.856,-3.749 3.852,-6.056 0.81,-0.845 1.015,-2.291 1.929,-3.028 0.718,-1.024 1.188,-2.297 2.476,-2.752 2.377,7.804 7.889,12.477 10.736,19.816 1.717,3.324 3.486,6.603 5.504,9.633 2.131,3.004 3.771,6.5 6.053,9.357 2.34,2.707 4.305,5.787 6.332,8.808 1.289,1.278 2.107,3.028 3.029,4.679 1.246,1.32 1.803,3.333 3.021,4.678 1.156,3.894 4.104,5.989 5.506,9.635 1.021,1.549 2.238,2.902 3.029,4.679 1.049,1.646 1.948,3.356 2.477,5.229 -1.646,0.381 -3.156,0.892 -4.953,1.111 z m -28.902,-53.12 c -2.201,-3.21 -6.41,-4.416 -12.109,-4.128 -2.07,0.5 -4.102,1.036 -6.331,1.375 -0.558,0.914 -0.733,2.2 -1.099,3.303 0.083,1.198 0.721,1.846 0.826,3.028 0.09,5.138 0.731,9.728 0.551,15.137 0.462,2.38 1.97,3.718 2.201,6.33 0.931,0.812 2.107,1.377 3.025,2.202 -0.21,1.678 0.188,2.749 0.826,3.579 0.807,-0.072 0.846,0.621 1.651,0.549 2.719,-0.032 3.01,-2.494 3.855,-4.401 0.968,-1.873 1.669,-4.019 2.75,-5.781 1.506,-4.091 3.531,-7.663 4.406,-12.385 0.179,-2.779 0.102,-5.419 -0.275,-8.257 -0.217,-0.061 -0.322,-0.23 -0.277,-0.551 z m -9.08,15.688 c 0.07,0.807 -0.625,0.847 -0.552,1.649 -0.797,-0.726 0.616,-1.567 0.275,-2.751 0.448,-0.652 0.532,-1.667 0.825,-2.477 1.07,-0.063 1.428,0.591 2.201,0.825 -0.169,1.668 -1.974,1.696 -2.749,2.754 z m 4.402,-8.531 c -0.766,0.125 0.217,-1.499 -0.553,-1.375 v -1.652 c -0.307,-0.515 -0.326,-1.325 -1.372,-1.101 0.147,-0.974 -0.235,-1.419 -0.828,-1.65 -2.038,0.438 -1.336,3.618 -1.926,5.504 v 3.302 c -0.644,0.092 -1.187,0.282 -1.378,0.825 -0.68,-0.701 0.119,-2.251 0.275,-3.027 -0.013,-1.299 0.483,-2.086 0.553,-3.302 -0.072,-0.806 0.621,-0.847 0.55,-1.652 0,-1.511 -2.08,-1.636 -3.306,-1.101 v -0.826 c 2.814,-0.669 6.995,-0.408 8.26,1.376 -0.23,1.418 -0.36,2.943 -0.275,4.679 z m -1.377,27.524 c -0.322,-0.045 -0.781,0.047 -0.824,-0.274 -0.771,-0.33 -1.9,-0.304 -3.027,-0.276 0,-0.152 -0.223,-0.312 -0.277,0 -1.301,-0.107 -2.296,0.09 -3.299,0.276 -1.067,0.86 -2.23,1.627 -3.302,2.477 -0.171,0.748 -0.547,1.289 -1.103,1.65 -0.247,1.987 -0.522,4.68 0,6.606 0.815,1.021 1.732,1.937 2.751,2.752 4.952,1.396 9.486,-0.976 11.286,-4.403 0.409,-1.748 0.409,-4.584 0,-6.33 -0.635,-0.932 -1.591,-1.533 -2.205,-2.478 z m -3.852,7.982 c -0.455,-0.279 -0.301,-1.17 -0.553,-1.654 -0.703,-0.029 -0.543,-0.92 -0.549,-1.648 h 2.75 c 0.366,2.01 -0.845,2.45 -1.648,3.302 z" fill="#ff9800"></path>
</svg>
